{
	"patcher" : 	{
		"fileversion" : 1,
		"appversion" : 		{
			"major" : 5,
			"minor" : 1,
			"revision" : 9
		}
,
		"rect" : [ 546.0, 137.0, 289.0, 188.0 ],
		"bglocked" : 0,
		"defrect" : [ 546.0, 137.0, 289.0, 188.0 ],
		"openrect" : [ 0.0, 0.0, 0.0, 0.0 ],
		"openinpresentation" : 0,
		"default_fontsize" : 12.0,
		"default_fontface" : 0,
		"default_fontname" : "Arial",
		"gridonopen" : 0,
		"gridsize" : [ 15.0, 15.0 ],
		"gridsnaponopen" : 0,
		"toolbarvisible" : 1,
		"boxanimatetime" : 200,
		"imprint" : 0,
		"enablehscroll" : 1,
		"enablevscroll" : 1,
		"devicewidth" : 0.0,
		"boxes" : [ 			{
				"box" : 				{
					"maxclass" : "outlet",
					"numinlets" : 1,
					"presentation_rect" : [ 70.0, 212.0, 0.0, 0.0 ],
					"numoutlets" : 0,
					"id" : "obj-4",
					"patching_rect" : [ 150.0, 120.0, 30.0, 30.0 ],
					"comment" : "new bar number on bar transition"
				}

			}
, 			{
				"box" : 				{
					"maxclass" : "newobj",
					"text" : "barpos",
					"fontsize" : 12.0,
					"numinlets" : 0,
					"numoutlets" : 4,
					"id" : "obj-2",
					"fontname" : "Arial",
					"outlettype" : [ "int", "", "int", "int" ],
					"patching_rect" : [ 105.0, 30.0, 59.5, 20.0 ]
				}

			}
, 			{
				"box" : 				{
					"maxclass" : "outlet",
					"numinlets" : 1,
					"numoutlets" : 0,
					"id" : "obj-7",
					"patching_rect" : [ 105.0, 120.0, 30.0, 30.0 ],
					"comment" : "bang on bar transition"
				}

			}
, 			{
				"box" : 				{
					"maxclass" : "button",
					"numinlets" : 1,
					"numoutlets" : 1,
					"id" : "obj-3",
					"outlettype" : [ "bang" ],
					"patching_rect" : [ 105.0, 90.0, 20.0, 20.0 ]
				}

			}
, 			{
				"box" : 				{
					"maxclass" : "newobj",
					"text" : "change",
					"fontsize" : 12.0,
					"numinlets" : 1,
					"numoutlets" : 3,
					"id" : "obj-1",
					"fontname" : "Arial",
					"outlettype" : [ "", "int", "int" ],
					"patching_rect" : [ 105.0, 60.0, 50.0, 20.0 ]
				}

			}
 ],
		"lines" : [ 			{
				"patchline" : 				{
					"source" : [ "obj-1", 0 ],
					"destination" : [ "obj-4", 0 ],
					"hidden" : 0,
					"midpoints" : [  ]
				}

			}
, 			{
				"patchline" : 				{
					"source" : [ "obj-1", 0 ],
					"destination" : [ "obj-3", 0 ],
					"hidden" : 0,
					"midpoints" : [  ]
				}

			}
, 			{
				"patchline" : 				{
					"source" : [ "obj-2", 0 ],
					"destination" : [ "obj-1", 0 ],
					"hidden" : 0,
					"midpoints" : [  ]
				}

			}
, 			{
				"patchline" : 				{
					"source" : [ "obj-3", 0 ],
					"destination" : [ "obj-7", 0 ],
					"hidden" : 0,
					"midpoints" : [  ]
				}

			}
 ]
	}

}
