{
	"patcher" : 	{
		"fileversion" : 1,
		"appversion" : 		{
			"major" : 5,
			"minor" : 1,
			"revision" : 9
		}
,
		"rect" : [ 63.0, 304.0, 531.0, 420.0 ],
		"bglocked" : 0,
		"defrect" : [ 63.0, 304.0, 531.0, 420.0 ],
		"openrect" : [ 0.0, 0.0, 0.0, 0.0 ],
		"openinpresentation" : 0,
		"default_fontsize" : 12.0,
		"default_fontface" : 0,
		"default_fontname" : "Arial",
		"gridonopen" : 0,
		"gridsize" : [ 15.0, 15.0 ],
		"gridsnaponopen" : 0,
		"toolbarvisible" : 1,
		"boxanimatetime" : 200,
		"imprint" : 0,
		"enablehscroll" : 1,
		"enablevscroll" : 1,
		"devicewidth" : 0.0,
		"boxes" : [ 			{
				"box" : 				{
					"maxclass" : "newobj",
					"text" : "loadmess 1",
					"fontsize" : 12.0,
					"numinlets" : 1,
					"numoutlets" : 1,
					"id" : "obj-13",
					"fontname" : "Arial",
					"outlettype" : [ "" ],
					"patching_rect" : [ 45.0, 75.0, 72.0, 20.0 ]
				}

			}
, 			{
				"box" : 				{
					"maxclass" : "newobj",
					"text" : "gate",
					"fontsize" : 12.0,
					"numinlets" : 2,
					"numoutlets" : 1,
					"id" : "obj-17",
					"fontname" : "Arial",
					"outlettype" : [ "" ],
					"patching_rect" : [ 135.0, 135.0, 34.0, 20.0 ]
				}

			}
, 			{
				"box" : 				{
					"maxclass" : "inlet",
					"numinlets" : 0,
					"numoutlets" : 1,
					"id" : "obj-15",
					"outlettype" : [ "" ],
					"patching_rect" : [ 30.0, 30.0, 30.0, 30.0 ],
					"comment" : "enable or disable output (0/1)"
				}

			}
, 			{
				"box" : 				{
					"maxclass" : "inlet",
					"numinlets" : 0,
					"numoutlets" : 1,
					"id" : "obj-16",
					"outlettype" : [ "" ],
					"patching_rect" : [ 195.0, 30.0, 30.0, 30.0 ],
					"comment" : "probability of new value"
				}

			}
, 			{
				"box" : 				{
					"maxclass" : "comment",
					"text" : "arg 3 is default value",
					"fontsize" : 12.0,
					"numinlets" : 1,
					"numoutlets" : 0,
					"id" : "obj-14",
					"fontname" : "Arial",
					"patching_rect" : [ 360.0, 195.0, 150.0, 20.0 ]
				}

			}
, 			{
				"box" : 				{
					"maxclass" : "comment",
					"text" : "arg 2 is range maximum",
					"fontsize" : 12.0,
					"numinlets" : 1,
					"numoutlets" : 0,
					"id" : "obj-12",
					"fontname" : "Arial",
					"patching_rect" : [ 360.0, 180.0, 150.0, 20.0 ]
				}

			}
, 			{
				"box" : 				{
					"maxclass" : "comment",
					"text" : "arg 1 is range minimum",
					"fontsize" : 12.0,
					"numinlets" : 1,
					"numoutlets" : 0,
					"id" : "obj-7",
					"fontname" : "Arial",
					"patching_rect" : [ 360.0, 165.0, 150.0, 20.0 ]
				}

			}
, 			{
				"box" : 				{
					"maxclass" : "comment",
					"text" : "patcher arguments:",
					"fontsize" : 12.0,
					"numinlets" : 1,
					"numoutlets" : 0,
					"id" : "obj-1",
					"fontname" : "Arial",
					"patching_rect" : [ 360.0, 135.0, 150.0, 20.0 ]
				}

			}
, 			{
				"box" : 				{
					"maxclass" : "flonum",
					"fontsize" : 12.0,
					"numinlets" : 1,
					"numoutlets" : 2,
					"id" : "obj-5",
					"fontname" : "Arial",
					"outlettype" : [ "float", "bang" ],
					"patching_rect" : [ 135.0, 315.0, 45.0, 20.0 ]
				}

			}
, 			{
				"box" : 				{
					"maxclass" : "newobj",
					"text" : "loadmess #3",
					"fontsize" : 12.0,
					"numinlets" : 1,
					"numoutlets" : 1,
					"id" : "obj-4",
					"fontname" : "Arial",
					"outlettype" : [ "" ],
					"patching_rect" : [ 165.0, 285.0, 79.0, 20.0 ]
				}

			}
, 			{
				"box" : 				{
					"maxclass" : "comment",
					"text" : "values are picked randomly without attraction.",
					"linecount" : 3,
					"fontsize" : 12.0,
					"numinlets" : 1,
					"numoutlets" : 0,
					"id" : "obj-3",
					"fontname" : "Arial",
					"patching_rect" : [ 360.0, 225.0, 150.0, 48.0 ]
				}

			}
, 			{
				"box" : 				{
					"maxclass" : "flonum",
					"fontsize" : 12.0,
					"numinlets" : 1,
					"numoutlets" : 2,
					"id" : "obj-10",
					"fontname" : "Arial",
					"outlettype" : [ "float", "bang" ],
					"patching_rect" : [ 210.0, 210.0, 45.0, 20.0 ]
				}

			}
, 			{
				"box" : 				{
					"maxclass" : "flonum",
					"fontsize" : 12.0,
					"numinlets" : 1,
					"numoutlets" : 2,
					"id" : "obj-9",
					"fontname" : "Arial",
					"outlettype" : [ "float", "bang" ],
					"patching_rect" : [ 165.0, 210.0, 45.0, 20.0 ]
				}

			}
, 			{
				"box" : 				{
					"maxclass" : "newobj",
					"text" : "randomminmax #1 #2",
					"fontsize" : 12.0,
					"numinlets" : 3,
					"numoutlets" : 1,
					"id" : "obj-30",
					"fontname" : "Arial",
					"outlettype" : [ "int" ],
					"patching_rect" : [ 135.0, 240.0, 127.0, 20.0 ]
				}

			}
, 			{
				"box" : 				{
					"maxclass" : "comment",
					"text" : "picks new value with a (default) probability of 0.01 on every transport unit.",
					"linecount" : 3,
					"fontsize" : 12.0,
					"numinlets" : 1,
					"numoutlets" : 0,
					"id" : "obj-8",
					"fontname" : "Arial",
					"patching_rect" : [ 360.0, 60.0, 160.0, 48.0 ]
				}

			}
, 			{
				"box" : 				{
					"maxclass" : "comment",
					"text" : "default float value picker.",
					"fontsize" : 12.0,
					"numinlets" : 1,
					"numoutlets" : 0,
					"id" : "obj-6",
					"fontname" : "Arial",
					"patching_rect" : [ 360.0, 30.0, 150.0, 20.0 ]
				}

			}
, 			{
				"box" : 				{
					"maxclass" : "outlet",
					"numinlets" : 1,
					"numoutlets" : 0,
					"id" : "obj-2",
					"patching_rect" : [ 135.0, 345.0, 30.0, 30.0 ],
					"comment" : "bool (0/1) when it changes"
				}

			}
, 			{
				"box" : 				{
					"maxclass" : "newobj",
					"text" : "barpos",
					"fontsize" : 12.0,
					"numinlets" : 0,
					"numoutlets" : 3,
					"id" : "obj-31",
					"fontname" : "Arial",
					"outlettype" : [ "int", "", "int" ],
					"patching_rect" : [ 120.0, 75.0, 49.0, 20.0 ]
				}

			}
, 			{
				"box" : 				{
					"maxclass" : "button",
					"numinlets" : 1,
					"numoutlets" : 1,
					"id" : "obj-29",
					"outlettype" : [ "bang" ],
					"patching_rect" : [ 150.0, 105.0, 20.0, 20.0 ]
				}

			}
, 			{
				"box" : 				{
					"maxclass" : "newobj",
					"text" : "loadmess 0.01",
					"fontsize" : 12.0,
					"numinlets" : 1,
					"numoutlets" : 1,
					"id" : "obj-26",
					"fontname" : "Arial",
					"outlettype" : [ "" ],
					"patching_rect" : [ 240.0, 90.0, 89.0, 20.0 ]
				}

			}
, 			{
				"box" : 				{
					"maxclass" : "flonum",
					"fontsize" : 12.0,
					"numinlets" : 1,
					"numoutlets" : 2,
					"id" : "obj-27",
					"fontname" : "Arial",
					"outlettype" : [ "float", "bang" ],
					"patching_rect" : [ 240.0, 135.0, 50.0, 20.0 ]
				}

			}
, 			{
				"box" : 				{
					"maxclass" : "newobj",
					"text" : "bernoulli",
					"fontsize" : 12.0,
					"numinlets" : 2,
					"numoutlets" : 2,
					"id" : "obj-11",
					"fontname" : "Arial",
					"outlettype" : [ "bang", "bang" ],
					"patching_rect" : [ 135.0, 165.0, 56.0, 20.0 ]
				}

			}
 ],
		"lines" : [ 			{
				"patchline" : 				{
					"source" : [ "obj-11", 0 ],
					"destination" : [ "obj-30", 0 ],
					"hidden" : 0,
					"midpoints" : [  ]
				}

			}
, 			{
				"patchline" : 				{
					"source" : [ "obj-27", 0 ],
					"destination" : [ "obj-11", 1 ],
					"hidden" : 0,
					"midpoints" : [  ]
				}

			}
, 			{
				"patchline" : 				{
					"source" : [ "obj-17", 0 ],
					"destination" : [ "obj-11", 0 ],
					"hidden" : 0,
					"midpoints" : [  ]
				}

			}
, 			{
				"patchline" : 				{
					"source" : [ "obj-26", 0 ],
					"destination" : [ "obj-27", 0 ],
					"hidden" : 0,
					"midpoints" : [  ]
				}

			}
, 			{
				"patchline" : 				{
					"source" : [ "obj-13", 0 ],
					"destination" : [ "obj-17", 0 ],
					"hidden" : 0,
					"midpoints" : [ 54.5, 114.5, 144.5, 114.5 ]
				}

			}
, 			{
				"patchline" : 				{
					"source" : [ "obj-16", 0 ],
					"destination" : [ "obj-27", 0 ],
					"hidden" : 0,
					"midpoints" : [ 204.5, 120.0, 249.5, 120.0 ]
				}

			}
, 			{
				"patchline" : 				{
					"source" : [ "obj-15", 0 ],
					"destination" : [ "obj-17", 0 ],
					"hidden" : 0,
					"midpoints" : [ 39.5, 114.0, 144.5, 114.0 ]
				}

			}
, 			{
				"patchline" : 				{
					"source" : [ "obj-29", 0 ],
					"destination" : [ "obj-17", 1 ],
					"hidden" : 0,
					"midpoints" : [  ]
				}

			}
, 			{
				"patchline" : 				{
					"source" : [ "obj-9", 0 ],
					"destination" : [ "obj-30", 1 ],
					"hidden" : 0,
					"midpoints" : [  ]
				}

			}
, 			{
				"patchline" : 				{
					"source" : [ "obj-10", 0 ],
					"destination" : [ "obj-30", 2 ],
					"hidden" : 0,
					"midpoints" : [  ]
				}

			}
, 			{
				"patchline" : 				{
					"source" : [ "obj-4", 0 ],
					"destination" : [ "obj-5", 0 ],
					"hidden" : 0,
					"midpoints" : [  ]
				}

			}
, 			{
				"patchline" : 				{
					"source" : [ "obj-30", 0 ],
					"destination" : [ "obj-5", 0 ],
					"hidden" : 0,
					"midpoints" : [  ]
				}

			}
, 			{
				"patchline" : 				{
					"source" : [ "obj-5", 0 ],
					"destination" : [ "obj-2", 0 ],
					"hidden" : 0,
					"midpoints" : [  ]
				}

			}
, 			{
				"patchline" : 				{
					"source" : [ "obj-31", 2 ],
					"destination" : [ "obj-29", 0 ],
					"hidden" : 0,
					"midpoints" : [  ]
				}

			}
 ]
	}

}
